<svg width="16" height="16" viewBox="0 0 16 16" fill="none" xmlns="http://www.w3.org/2000/svg">
<g clip-path="url(#clip0_17_230)">
<path fill-rule="evenodd" clip-rule="evenodd" d="M4.66675 0.666626C5.03494 0.666626 5.33342 0.965103 5.33342 1.33329V2.66663C5.33342 3.03482 5.03494 3.33329 4.66675 3.33329C4.29856 3.33329 4.00008 3.03482 4.00008 2.66663V1.33329C4.00008 0.965103 4.29856 0.666626 4.66675 0.666626ZM8.12979 4.09787L7.83792 4.43576C7.59724 4.71439 7.17625 4.74515 6.89762 4.50447C6.61899 4.26378 6.58823 3.84279 6.82891 3.56416L7.13758 3.20683C7.14818 3.19455 7.15924 3.18266 7.17071 3.17119C7.92095 2.42106 8.93844 1.99968 9.99936 1.99976C11.0603 1.99983 12.0777 2.42135 12.8279 3.17159C13.578 3.92182 13.9994 4.93932 13.9993 6.00024C13.9992 7.06116 13.5777 8.0786 12.8275 8.82873C12.8165 8.83972 12.8051 8.85033 12.7933 8.86053L12.4373 9.16986C12.1594 9.41135 11.7383 9.38182 11.4968 9.10389C11.2554 8.82596 11.2849 8.40489 11.5628 8.16339L11.9002 7.87022C12.3907 7.37166 12.6659 6.7001 12.666 6.00015C12.666 5.29285 12.3851 4.6145 11.885 4.11433C11.3849 3.61416 10.7066 3.33314 9.99927 3.33309C9.29964 3.33304 8.62834 3.60791 8.12979 4.09787ZM0.666748 4.66663C0.666748 4.29844 0.965225 3.99996 1.33341 3.99996H2.66675C3.03494 3.99996 3.33341 4.29844 3.33341 4.66663C3.33341 5.03482 3.03494 5.33329 2.66675 5.33329H1.33341C0.965225 5.33329 0.666748 5.03482 0.666748 4.66663ZM10.4715 5.52855C10.7318 5.7889 10.7318 6.21101 10.4715 6.47136L6.47149 10.4714C6.21114 10.7317 5.78903 10.7317 5.52868 10.4714C5.26833 10.211 5.26833 9.7889 5.52868 9.52855L9.52868 5.52855C9.78903 5.26821 10.2111 5.26821 10.4715 5.52855ZM4.49967 6.89186C4.74346 7.16778 4.71742 7.58908 4.44151 7.83288L4.10698 8.12847C3.8638 8.37214 3.67043 8.66094 3.53775 8.97872C3.40281 9.30193 3.33332 9.64871 3.33332 9.99896C3.33332 10.3492 3.40281 10.696 3.53775 11.0192C3.6727 11.3424 3.87043 11.6356 4.11949 11.8819L4.11951 11.8819C4.6272 12.384 5.31241 12.6655 6.02641 12.6655C6.72444 12.6655 7.39494 12.3964 7.89897 11.9153L8.13174 11.6022C8.35141 11.3067 8.76902 11.2453 9.0645 11.4649C9.35998 11.6846 9.42143 12.1022 9.20176 12.3977L8.93709 12.7537C8.91697 12.7808 8.89482 12.8063 8.87084 12.83C8.11354 13.5789 7.09146 13.9989 6.02641 13.9989C4.96138 13.9989 3.93931 13.5789 3.18201 12.83C2.80754 12.4597 2.51025 12.0189 2.30736 11.5329C2.10446 11.047 1.99999 10.5256 1.99999 9.99896C1.99999 9.47235 2.10446 8.95096 2.30736 8.46501C2.51025 7.97905 2.80754 7.53817 3.18201 7.1679C3.19087 7.15914 3.19998 7.15063 3.20932 7.14237L3.55865 6.83371C3.83457 6.58991 4.25587 6.61595 4.49967 6.89186ZM12.6667 11.3333C12.6667 10.9651 12.9652 10.6666 13.3334 10.6666H14.6667C15.0349 10.6666 15.3334 10.9651 15.3334 11.3333C15.3334 11.7015 15.0349 12 14.6667 12H13.3334C12.9652 12 12.6667 11.7015 12.6667 11.3333ZM11.3334 12.6666C11.7016 12.6666 12.0001 12.9651 12.0001 13.3333V14.6666C12.0001 15.0348 11.7016 15.3333 11.3334 15.3333C10.9652 15.3333 10.6667 15.0348 10.6667 14.6666V13.3333C10.6667 12.9651 10.9652 12.6666 11.3334 12.6666Z" fill="white"/>
</g>
<defs>
<clipPath id="clip0_17_230">
<rect width="16" height="16" fill="white"/>
</clipPath>
</defs>
</svg>
