<svg width="40" height="40" viewBox="0 0 40 40" fill="none" xmlns="http://www.w3.org/2000/svg">
<g filter="url(#filter0_d_60_106)">
<path d="M18.1093 31.9555C25.7564 31.9555 31.9555 25.7564 31.9555 18.1093C31.9555 10.4623 25.7564 4.26318 18.1093 4.26318C10.4623 4.26318 4.26318 10.4623 4.26318 18.1093C4.26318 25.7564 10.4623 31.9555 18.1093 31.9555Z" fill="url(#paint0_linear_60_106)"/>
</g>
<path d="M9.10553 9L16.5427 14.5082L13.9296 16.7705L9.50754 17.9508L8.20101 11.8525L9.10553 9Z" fill="white"/>
<path d="M28 11.8525L26.794 9L19.6583 14.5082L22.1709 16.7705L26.593 17.9508L28 11.8525Z" fill="white"/>
<path d="M9.10553 9L16.5427 14.5082L15.4372 11.3607L9.10553 9Z" fill="white"/>
<path d="M9.10553 9L16.5427 14.5082L15.4372 11.3607L9.10553 9Z" fill="white"/>
<path d="M26.794 9L20.5628 11.3607L19.6583 14.5082L26.794 9Z" fill="white"/>
<path d="M16.5427 14.5082L13.9296 16.7705L12.6231 18.7377H16.8442L16.5427 14.5082Z" fill="white"/>
<path d="M19.6583 14.5082L22.1709 16.7705L23.4774 18.7377H19.3568L19.6583 14.5082Z" fill="white"/>
<path d="M16.4422 23.9508L13.9296 25.2295L14.3317 22.1803L16.4422 23.9508Z" fill="white"/>
<path d="M9.70854 26.5082L13.9296 25.2295L12.9749 23.7049L12.0201 22.1803H8L9.70854 26.5082Z" fill="white"/>
<path d="M12.0201 22.1803H14.3317L13.9296 25.2295L12.9749 23.7049L12.0201 22.1803Z" fill="white"/>
<path d="M22.1709 25.2295L21.8693 22.1803H24.1809L22.1709 25.2295Z" fill="white"/>
<path d="M16.8442 18.7377L16.4422 21L14.3317 20.5082L12.6231 18.7377H16.8442Z" fill="white"/>
<path d="M19.3568 18.7377H23.4774L21.6683 20.5082L19.7588 21L19.3568 18.7377Z" fill="white"/>
<path d="M26.4925 26.4098L27.799 22.1803H24.1809L22.1709 25.2295L26.4925 26.4098Z" fill="white"/>
<path d="M22.1709 25.2295L19.6583 23.9508L21.8693 22.1803L22.1709 25.2295Z" fill="white"/>
<path d="M16.8442 23.6557L16.4422 23.9508V25.5246H19.6583V23.9508L19.3568 23.6557H16.8442Z" fill="white"/>
<path d="M19.7588 27L22.1709 25.2295L19.7588 26.4098L19.6583 25.5246H16.4422L16.3417 26.4098L13.9296 25.2295L16.4422 27H19.7588Z" fill="white"/>
<path d="M16.4422 23.9508L13.9296 25.2295L16.3417 26.4098L16.4422 25.5246V23.9508Z" fill="white"/>
<path d="M22.1709 25.2295L19.6583 23.9508V25.5246L19.7588 26.4098L22.1709 25.2295Z" fill="white"/>
<path d="M14.3317 20.5082L16.4422 21L15.6382 19.7213L14.3317 20.5082Z" fill="white"/>
<path d="M21.6683 20.5082L19.7588 21L20.5628 19.7213L21.6683 20.5082Z" fill="white"/>
<path d="M8.20101 11.8525L9.10553 9L15.4372 11.3607H20.5628L26.794 9L28 11.8525L26.593 17.9508L27.799 22.1803L26.4925 26.4098L22.1709 25.2295L19.7588 27H16.4422L13.9296 25.2295L9.70854 26.5082L8 22.1803L9.50754 17.9508L8.20101 11.8525Z" fill="white"/>
<path d="M9.10553 9L16.5427 14.5082L15.4372 11.3607L9.10553 9Z" fill="white"/>
<path d="M9.10553 9L16.5427 14.5082L15.4372 11.3607L9.10553 9Z" fill="#ACACAC" fill-opacity="0.2"/>
<path d="M26.794 9L20.5628 11.3607L19.6583 14.5082L26.794 9Z" fill="#ACACAC" fill-opacity="0.2"/>
<path d="M9.10553 9L16.5427 14.5082L13.9296 16.7705L9.50754 17.9508L8.20101 11.8525L9.10553 9Z" fill="#ACACAC" fill-opacity="0.6"/>
<path d="M28 11.8525L26.794 9L19.6583 14.5082L22.1709 16.7705L26.593 17.9508L28 11.8525Z" fill="#ACACAC" fill-opacity="0.6"/>
<path d="M16.5427 14.5082L13.9296 16.7705L12.6231 18.7377H16.8442L16.5427 14.5082Z" fill="#ACACAC" fill-opacity="0.1"/>
<path d="M19.6583 14.5082L22.1709 16.7705L23.4774 18.7377H19.3568L19.6583 14.5082Z" fill="#ACACAC" fill-opacity="0.1"/>
<path d="M16.8442 18.7377L16.4422 21L14.3317 20.5082L12.6231 18.7377H16.8442Z" fill="#ACACAC" fill-opacity="0.3"/>
<path d="M14.3317 20.5082L16.4422 21L15.6382 19.7213L14.3317 20.5082Z" fill="white"/>
<path d="M19.3568 18.7377H23.4774L21.6683 20.5082L19.7588 21L19.3568 18.7377Z" fill="#ACACAC" fill-opacity="0.3"/>
<path d="M21.6683 20.5082L19.7588 21L20.5628 19.7213L21.6683 20.5082Z" fill="white"/>
<path d="M21.6683 20.5082L19.7588 21L20.5628 19.7213L21.6683 20.5082Z" fill="white"/>
<path d="M21.6683 20.5082L19.7588 21L20.5628 19.7213L21.6683 20.5082Z" fill="#ACACAC" fill-opacity="0.6"/>
<path d="M14.3317 20.5082L16.4422 21L15.6382 19.7213L14.3317 20.5082Z" fill="white"/>
<path d="M14.3317 20.5082L16.4422 21L15.6382 19.7213L14.3317 20.5082Z" fill="#ACACAC" fill-opacity="0.6"/>
<path d="M9.70854 26.5082L13.9296 25.2295L12.9749 23.7049L12.0201 22.1803H8L9.70854 26.5082Z" fill="#ACACAC" fill-opacity="0.1"/>
<path d="M26.4925 26.4098L27.799 22.1803H24.1809L22.1709 25.2295L26.4925 26.4098Z" fill="#ACACAC" fill-opacity="0.1"/>
<path d="M12.0201 22.1803H14.3317L13.9296 25.2295L12.9749 23.7049L12.0201 22.1803Z" fill="#ACACAC" fill-opacity="0.4"/>
<path d="M22.1709 25.2295L21.8693 22.1803H24.1809L22.1709 25.2295Z" fill="#ACACAC" fill-opacity="0.4"/>
<path d="M16.4422 23.9508L13.9296 25.2295L14.3317 22.1803L16.4422 23.9508Z" fill="#ACACAC" fill-opacity="0.1"/>
<path d="M22.1709 25.2295L19.6583 23.9508L21.8693 22.1803L22.1709 25.2295Z" fill="#ACACAC" fill-opacity="0.1"/>
<path d="M16.4422 23.9508L13.9296 25.2295L16.3417 26.4098L16.4422 25.5246V23.9508Z" fill="#ACACAC" fill-opacity="0.05"/>
<path d="M22.1709 25.2295L19.6583 23.9508V25.5246L19.7588 26.4098L22.1709 25.2295Z" fill="#ACACAC" fill-opacity="0.05"/>
<path d="M16.8442 23.6557L16.4422 23.9508V25.5246H19.6583V23.9508L19.3568 23.6557H16.8442Z" fill="#ACACAC" fill-opacity="0.6"/>
<path d="M19.7588 27L22.1709 25.2295L19.7588 26.4098L19.6583 25.5246H16.4422L16.3417 26.4098L13.9296 25.2295L16.4422 27H19.7588Z" fill="#ACACAC" fill-opacity="0.3"/>
<defs>
<filter id="filter0_d_60_106" x="0.263184" y="0.263184" width="39.6924" height="39.6923" filterUnits="userSpaceOnUse" color-interpolation-filters="sRGB">
<feFlood flood-opacity="0" result="BackgroundImageFix"/>
<feColorMatrix in="SourceAlpha" type="matrix" values="0 0 0 0 0 0 0 0 0 0 0 0 0 0 0 0 0 0 127 0" result="hardAlpha"/>
<feOffset dx="2" dy="2"/>
<feGaussianBlur stdDeviation="3"/>
<feComposite in2="hardAlpha" operator="out"/>
<feColorMatrix type="matrix" values="0 0 0 0 0.133333 0 0 0 0 0.133333 0 0 0 0 0.133333 0 0 0 0.18 0"/>
<feBlend mode="normal" in2="BackgroundImageFix" result="effect1_dropShadow_60_106"/>
<feBlend mode="normal" in="SourceGraphic" in2="effect1_dropShadow_60_106" result="shape"/>
</filter>
<linearGradient id="paint0_linear_60_106" x1="4.26318" y1="18.1093" x2="31.8694" y2="19.6507" gradientUnits="userSpaceOnUse">
<stop stop-color="#93F3F2"/>
<stop offset="0.317708" stop-color="#B5A7FD"/>
<stop offset="0.714535" stop-color="#DCACCF"/>
<stop offset="1" stop-color="#FBC197"/>
</linearGradient>
</defs>
</svg>
